G04 #@! TF.FileFunction,Other,Comment*
%FSLAX46Y46*%
G04 Gerber Fmt 4.6, Leading zero omitted, Abs format (unit mm)*
G04 Created by KiCad (PCBNEW 4.0.7) date 2017 December 09, Saturday 06:19:51*
%MOMM*%
%LPD*%
G01*
G04 APERTURE LIST*
%ADD10C,0.100000*%
%ADD11C,0.300000*%
G04 APERTURE END LIST*
D10*
D11*
X155471429Y-107614285D02*
X155400000Y-107542856D01*
X155328571Y-107399999D01*
X155328571Y-107042856D01*
X155400000Y-106899999D01*
X155471429Y-106828570D01*
X155614286Y-106757142D01*
X155757143Y-106757142D01*
X155971429Y-106828570D01*
X156828571Y-107685713D01*
X156828571Y-106757142D01*
X155471429Y-106185714D02*
X155400000Y-106114285D01*
X155328571Y-105971428D01*
X155328571Y-105614285D01*
X155400000Y-105471428D01*
X155471429Y-105399999D01*
X155614286Y-105328571D01*
X155757143Y-105328571D01*
X155971429Y-105399999D01*
X156828571Y-106257142D01*
X156828571Y-105328571D01*
X156685714Y-104685714D02*
X156757143Y-104614286D01*
X156828571Y-104685714D01*
X156757143Y-104757143D01*
X156685714Y-104685714D01*
X156828571Y-104685714D01*
X155828571Y-103328571D02*
X156828571Y-103328571D01*
X155257143Y-103685714D02*
X156328571Y-104042857D01*
X156328571Y-103114285D01*
X155328571Y-102257143D02*
X155328571Y-102114286D01*
X155400000Y-101971429D01*
X155471429Y-101900000D01*
X155614286Y-101828571D01*
X155900000Y-101757143D01*
X156257143Y-101757143D01*
X156542857Y-101828571D01*
X156685714Y-101900000D01*
X156757143Y-101971429D01*
X156828571Y-102114286D01*
X156828571Y-102257143D01*
X156757143Y-102400000D01*
X156685714Y-102471429D01*
X156542857Y-102542857D01*
X156257143Y-102614286D01*
X155900000Y-102614286D01*
X155614286Y-102542857D01*
X155471429Y-102471429D01*
X155400000Y-102400000D01*
X155328571Y-102257143D01*
X155328571Y-100828572D02*
X155328571Y-100685715D01*
X155400000Y-100542858D01*
X155471429Y-100471429D01*
X155614286Y-100400000D01*
X155900000Y-100328572D01*
X156257143Y-100328572D01*
X156542857Y-100400000D01*
X156685714Y-100471429D01*
X156757143Y-100542858D01*
X156828571Y-100685715D01*
X156828571Y-100828572D01*
X156757143Y-100971429D01*
X156685714Y-101042858D01*
X156542857Y-101114286D01*
X156257143Y-101185715D01*
X155900000Y-101185715D01*
X155614286Y-101114286D01*
X155471429Y-101042858D01*
X155400000Y-100971429D01*
X155328571Y-100828572D01*
X156828571Y-98542858D02*
X155828571Y-98542858D01*
X155971429Y-98542858D02*
X155900000Y-98471430D01*
X155828571Y-98328572D01*
X155828571Y-98114287D01*
X155900000Y-97971430D01*
X156042857Y-97900001D01*
X156828571Y-97900001D01*
X156042857Y-97900001D02*
X155900000Y-97828572D01*
X155828571Y-97685715D01*
X155828571Y-97471430D01*
X155900000Y-97328572D01*
X156042857Y-97257144D01*
X156828571Y-97257144D01*
X156828571Y-96542858D02*
X155828571Y-96542858D01*
X155971429Y-96542858D02*
X155900000Y-96471430D01*
X155828571Y-96328572D01*
X155828571Y-96114287D01*
X155900000Y-95971430D01*
X156042857Y-95900001D01*
X156828571Y-95900001D01*
X156042857Y-95900001D02*
X155900000Y-95828572D01*
X155828571Y-95685715D01*
X155828571Y-95471430D01*
X155900000Y-95328572D01*
X156042857Y-95257144D01*
X156828571Y-95257144D01*
X154800000Y-112600000D02*
X154800000Y-90200000D01*
X151200000Y-112600000D02*
X157500000Y-112600000D01*
X151200000Y-90200000D02*
X157500000Y-90200000D01*
X154800000Y-90200000D02*
X155386421Y-91326504D01*
X154800000Y-90200000D02*
X154213579Y-91326504D01*
X154800000Y-112600000D02*
X155386421Y-111473496D01*
X154800000Y-112600000D02*
X154213579Y-111473496D01*
X134285715Y-84171429D02*
X134357144Y-84100000D01*
X134500001Y-84028571D01*
X134857144Y-84028571D01*
X135000001Y-84100000D01*
X135071430Y-84171429D01*
X135142858Y-84314286D01*
X135142858Y-84457143D01*
X135071430Y-84671429D01*
X134214287Y-85528571D01*
X135142858Y-85528571D01*
X136571429Y-85528571D02*
X135714286Y-85528571D01*
X136142858Y-85528571D02*
X136142858Y-84028571D01*
X136000001Y-84242857D01*
X135857143Y-84385714D01*
X135714286Y-84457143D01*
X137214286Y-85385714D02*
X137285714Y-85457143D01*
X137214286Y-85528571D01*
X137142857Y-85457143D01*
X137214286Y-85385714D01*
X137214286Y-85528571D01*
X138214286Y-84028571D02*
X138357143Y-84028571D01*
X138500000Y-84100000D01*
X138571429Y-84171429D01*
X138642858Y-84314286D01*
X138714286Y-84600000D01*
X138714286Y-84957143D01*
X138642858Y-85242857D01*
X138571429Y-85385714D01*
X138500000Y-85457143D01*
X138357143Y-85528571D01*
X138214286Y-85528571D01*
X138071429Y-85457143D01*
X138000000Y-85385714D01*
X137928572Y-85242857D01*
X137857143Y-84957143D01*
X137857143Y-84600000D01*
X137928572Y-84314286D01*
X138000000Y-84171429D01*
X138071429Y-84100000D01*
X138214286Y-84028571D01*
X139642857Y-84028571D02*
X139785714Y-84028571D01*
X139928571Y-84100000D01*
X140000000Y-84171429D01*
X140071429Y-84314286D01*
X140142857Y-84600000D01*
X140142857Y-84957143D01*
X140071429Y-85242857D01*
X140000000Y-85385714D01*
X139928571Y-85457143D01*
X139785714Y-85528571D01*
X139642857Y-85528571D01*
X139500000Y-85457143D01*
X139428571Y-85385714D01*
X139357143Y-85242857D01*
X139285714Y-84957143D01*
X139285714Y-84600000D01*
X139357143Y-84314286D01*
X139428571Y-84171429D01*
X139500000Y-84100000D01*
X139642857Y-84028571D01*
X141071428Y-84028571D02*
X141214285Y-84028571D01*
X141357142Y-84100000D01*
X141428571Y-84171429D01*
X141500000Y-84314286D01*
X141571428Y-84600000D01*
X141571428Y-84957143D01*
X141500000Y-85242857D01*
X141428571Y-85385714D01*
X141357142Y-85457143D01*
X141214285Y-85528571D01*
X141071428Y-85528571D01*
X140928571Y-85457143D01*
X140857142Y-85385714D01*
X140785714Y-85242857D01*
X140714285Y-84957143D01*
X140714285Y-84600000D01*
X140785714Y-84314286D01*
X140857142Y-84171429D01*
X140928571Y-84100000D01*
X141071428Y-84028571D01*
X143357142Y-85528571D02*
X143357142Y-84528571D01*
X143357142Y-84671429D02*
X143428570Y-84600000D01*
X143571428Y-84528571D01*
X143785713Y-84528571D01*
X143928570Y-84600000D01*
X143999999Y-84742857D01*
X143999999Y-85528571D01*
X143999999Y-84742857D02*
X144071428Y-84600000D01*
X144214285Y-84528571D01*
X144428570Y-84528571D01*
X144571428Y-84600000D01*
X144642856Y-84742857D01*
X144642856Y-85528571D01*
X145357142Y-85528571D02*
X145357142Y-84528571D01*
X145357142Y-84671429D02*
X145428570Y-84600000D01*
X145571428Y-84528571D01*
X145785713Y-84528571D01*
X145928570Y-84600000D01*
X145999999Y-84742857D01*
X145999999Y-85528571D01*
X145999999Y-84742857D02*
X146071428Y-84600000D01*
X146214285Y-84528571D01*
X146428570Y-84528571D01*
X146571428Y-84600000D01*
X146642856Y-84742857D01*
X146642856Y-85528571D01*
X130000000Y-86200000D02*
X151000000Y-86200000D01*
X130000000Y-90200000D02*
X130000000Y-83500000D01*
X151000000Y-90200000D02*
X151000000Y-83500000D01*
X151000000Y-86200000D02*
X149873496Y-86786421D01*
X151000000Y-86200000D02*
X149873496Y-85613579D01*
X130000000Y-86200000D02*
X131126504Y-86786421D01*
X130000000Y-86200000D02*
X131126504Y-85613579D01*
M02*
