G04 #@! TF.FileFunction,Copper,L2,Bot,Signal*
%FSLAX46Y46*%
G04 Gerber Fmt 4.6, Leading zero omitted, Abs format (unit mm)*
G04 Created by KiCad (PCBNEW 4.0.7) date 2017 December 09, Saturday 06:19:51*
%MOMM*%
%LPD*%
G01*
G04 APERTURE LIST*
%ADD10C,0.100000*%
%ADD11R,1.700000X1.700000*%
%ADD12O,1.700000X1.700000*%
%ADD13C,0.600000*%
%ADD14C,0.250000*%
%ADD15C,0.254000*%
G04 APERTURE END LIST*
D10*
D11*
X135000000Y-108750000D03*
D12*
X137540000Y-108750000D03*
X140080000Y-108750000D03*
X142620000Y-108750000D03*
D11*
X134750000Y-94000000D03*
D12*
X137290000Y-94000000D03*
X139830000Y-94000000D03*
X142370000Y-94000000D03*
D11*
X147250000Y-108750000D03*
D12*
X147250000Y-106210000D03*
X147250000Y-103670000D03*
D11*
X147250000Y-99000000D03*
D12*
X147250000Y-96460000D03*
X147250000Y-93920000D03*
D13*
X140325000Y-103475000D03*
X135400000Y-96775000D03*
D14*
X136542000Y-97917000D02*
X135400000Y-96775000D01*
X140325000Y-103475000D02*
X138350000Y-101500000D01*
X138350000Y-101500000D02*
X138350000Y-99725000D01*
X138350000Y-99725000D02*
X136542000Y-97917000D01*
D15*
G36*
X150420000Y-111939000D02*
X130631000Y-111939000D01*
X130631000Y-107900000D01*
X133502560Y-107900000D01*
X133502560Y-109600000D01*
X133546838Y-109835317D01*
X133685910Y-110051441D01*
X133898110Y-110196431D01*
X134150000Y-110247440D01*
X135850000Y-110247440D01*
X136085317Y-110203162D01*
X136301441Y-110064090D01*
X136446431Y-109851890D01*
X136460086Y-109784459D01*
X136489946Y-109829147D01*
X136971715Y-110151054D01*
X137540000Y-110264093D01*
X138108285Y-110151054D01*
X138590054Y-109829147D01*
X138810000Y-109499974D01*
X139029946Y-109829147D01*
X139511715Y-110151054D01*
X140080000Y-110264093D01*
X140648285Y-110151054D01*
X141130054Y-109829147D01*
X141350000Y-109499974D01*
X141569946Y-109829147D01*
X142051715Y-110151054D01*
X142620000Y-110264093D01*
X143188285Y-110151054D01*
X143670054Y-109829147D01*
X143991961Y-109347378D01*
X144105000Y-108779093D01*
X144105000Y-108720907D01*
X143991961Y-108152622D01*
X143670054Y-107670853D01*
X143188285Y-107348946D01*
X142620000Y-107235907D01*
X142051715Y-107348946D01*
X141569946Y-107670853D01*
X141350000Y-108000026D01*
X141130054Y-107670853D01*
X140648285Y-107348946D01*
X140080000Y-107235907D01*
X139511715Y-107348946D01*
X139029946Y-107670853D01*
X138810000Y-108000026D01*
X138590054Y-107670853D01*
X138108285Y-107348946D01*
X137540000Y-107235907D01*
X136971715Y-107348946D01*
X136489946Y-107670853D01*
X136462150Y-107712452D01*
X136453162Y-107664683D01*
X136314090Y-107448559D01*
X136101890Y-107303569D01*
X135850000Y-107252560D01*
X134150000Y-107252560D01*
X133914683Y-107296838D01*
X133698559Y-107435910D01*
X133553569Y-107648110D01*
X133502560Y-107900000D01*
X130631000Y-107900000D01*
X130631000Y-96960167D01*
X134464838Y-96960167D01*
X134606883Y-97303943D01*
X134869673Y-97567192D01*
X135213201Y-97709838D01*
X135260077Y-97709879D01*
X137590000Y-100039802D01*
X137590000Y-101500000D01*
X137647852Y-101790839D01*
X137812599Y-102037401D01*
X139389878Y-103614680D01*
X139389838Y-103660167D01*
X139531883Y-104003943D01*
X139794673Y-104267192D01*
X140138201Y-104409838D01*
X140510167Y-104410162D01*
X140853943Y-104268117D01*
X141117192Y-104005327D01*
X141259838Y-103661799D01*
X141260162Y-103289833D01*
X141118117Y-102946057D01*
X140855327Y-102682808D01*
X140511799Y-102540162D01*
X140464923Y-102540121D01*
X139110000Y-101185198D01*
X139110000Y-99725000D01*
X139052148Y-99434161D01*
X138887401Y-99187599D01*
X136335122Y-96635320D01*
X136335162Y-96589833D01*
X136193117Y-96246057D01*
X135930327Y-95982808D01*
X135586799Y-95840162D01*
X135214833Y-95839838D01*
X134871057Y-95981883D01*
X134607808Y-96244673D01*
X134465162Y-96588201D01*
X134464838Y-96960167D01*
X130631000Y-96960167D01*
X130631000Y-93150000D01*
X133252560Y-93150000D01*
X133252560Y-94850000D01*
X133296838Y-95085317D01*
X133435910Y-95301441D01*
X133648110Y-95446431D01*
X133900000Y-95497440D01*
X135600000Y-95497440D01*
X135835317Y-95453162D01*
X136051441Y-95314090D01*
X136196431Y-95101890D01*
X136210086Y-95034459D01*
X136239946Y-95079147D01*
X136721715Y-95401054D01*
X137290000Y-95514093D01*
X137858285Y-95401054D01*
X138340054Y-95079147D01*
X138661961Y-94597378D01*
X138775000Y-94029093D01*
X138775000Y-93970907D01*
X140885000Y-93970907D01*
X140885000Y-94029093D01*
X140998039Y-94597378D01*
X141319946Y-95079147D01*
X141801715Y-95401054D01*
X142370000Y-95514093D01*
X142938285Y-95401054D01*
X143420054Y-95079147D01*
X143741961Y-94597378D01*
X143855000Y-94029093D01*
X143855000Y-93970907D01*
X143844874Y-93920000D01*
X145735907Y-93920000D01*
X145848946Y-94488285D01*
X146170853Y-94970054D01*
X146500026Y-95190000D01*
X146170853Y-95409946D01*
X145848946Y-95891715D01*
X145735907Y-96460000D01*
X145848946Y-97028285D01*
X146170853Y-97510054D01*
X146212452Y-97537850D01*
X146164683Y-97546838D01*
X145948559Y-97685910D01*
X145803569Y-97898110D01*
X145752560Y-98150000D01*
X145752560Y-99850000D01*
X145796838Y-100085317D01*
X145935910Y-100301441D01*
X146148110Y-100446431D01*
X146400000Y-100497440D01*
X148100000Y-100497440D01*
X148335317Y-100453162D01*
X148551441Y-100314090D01*
X148696431Y-100101890D01*
X148747440Y-99850000D01*
X148747440Y-98150000D01*
X148703162Y-97914683D01*
X148564090Y-97698559D01*
X148351890Y-97553569D01*
X148284459Y-97539914D01*
X148329147Y-97510054D01*
X148651054Y-97028285D01*
X148764093Y-96460000D01*
X148651054Y-95891715D01*
X148329147Y-95409946D01*
X147999974Y-95190000D01*
X148329147Y-94970054D01*
X148651054Y-94488285D01*
X148764093Y-93920000D01*
X148651054Y-93351715D01*
X148329147Y-92869946D01*
X147847378Y-92548039D01*
X147279093Y-92435000D01*
X147220907Y-92435000D01*
X146652622Y-92548039D01*
X146170853Y-92869946D01*
X145848946Y-93351715D01*
X145735907Y-93920000D01*
X143844874Y-93920000D01*
X143741961Y-93402622D01*
X143420054Y-92920853D01*
X142938285Y-92598946D01*
X142370000Y-92485907D01*
X141801715Y-92598946D01*
X141319946Y-92920853D01*
X140998039Y-93402622D01*
X140885000Y-93970907D01*
X138775000Y-93970907D01*
X138661961Y-93402622D01*
X138340054Y-92920853D01*
X137858285Y-92598946D01*
X137290000Y-92485907D01*
X136721715Y-92598946D01*
X136239946Y-92920853D01*
X136212150Y-92962452D01*
X136203162Y-92914683D01*
X136064090Y-92698559D01*
X135851890Y-92553569D01*
X135600000Y-92502560D01*
X133900000Y-92502560D01*
X133664683Y-92546838D01*
X133448559Y-92685910D01*
X133303569Y-92898110D01*
X133252560Y-93150000D01*
X130631000Y-93150000D01*
X130631000Y-90880000D01*
X150420000Y-90880000D01*
X150420000Y-111939000D01*
X150420000Y-111939000D01*
G37*
X150420000Y-111939000D02*
X130631000Y-111939000D01*
X130631000Y-107900000D01*
X133502560Y-107900000D01*
X133502560Y-109600000D01*
X133546838Y-109835317D01*
X133685910Y-110051441D01*
X133898110Y-110196431D01*
X134150000Y-110247440D01*
X135850000Y-110247440D01*
X136085317Y-110203162D01*
X136301441Y-110064090D01*
X136446431Y-109851890D01*
X136460086Y-109784459D01*
X136489946Y-109829147D01*
X136971715Y-110151054D01*
X137540000Y-110264093D01*
X138108285Y-110151054D01*
X138590054Y-109829147D01*
X138810000Y-109499974D01*
X139029946Y-109829147D01*
X139511715Y-110151054D01*
X140080000Y-110264093D01*
X140648285Y-110151054D01*
X141130054Y-109829147D01*
X141350000Y-109499974D01*
X141569946Y-109829147D01*
X142051715Y-110151054D01*
X142620000Y-110264093D01*
X143188285Y-110151054D01*
X143670054Y-109829147D01*
X143991961Y-109347378D01*
X144105000Y-108779093D01*
X144105000Y-108720907D01*
X143991961Y-108152622D01*
X143670054Y-107670853D01*
X143188285Y-107348946D01*
X142620000Y-107235907D01*
X142051715Y-107348946D01*
X141569946Y-107670853D01*
X141350000Y-108000026D01*
X141130054Y-107670853D01*
X140648285Y-107348946D01*
X140080000Y-107235907D01*
X139511715Y-107348946D01*
X139029946Y-107670853D01*
X138810000Y-108000026D01*
X138590054Y-107670853D01*
X138108285Y-107348946D01*
X137540000Y-107235907D01*
X136971715Y-107348946D01*
X136489946Y-107670853D01*
X136462150Y-107712452D01*
X136453162Y-107664683D01*
X136314090Y-107448559D01*
X136101890Y-107303569D01*
X135850000Y-107252560D01*
X134150000Y-107252560D01*
X133914683Y-107296838D01*
X133698559Y-107435910D01*
X133553569Y-107648110D01*
X133502560Y-107900000D01*
X130631000Y-107900000D01*
X130631000Y-96960167D01*
X134464838Y-96960167D01*
X134606883Y-97303943D01*
X134869673Y-97567192D01*
X135213201Y-97709838D01*
X135260077Y-97709879D01*
X137590000Y-100039802D01*
X137590000Y-101500000D01*
X137647852Y-101790839D01*
X137812599Y-102037401D01*
X139389878Y-103614680D01*
X139389838Y-103660167D01*
X139531883Y-104003943D01*
X139794673Y-104267192D01*
X140138201Y-104409838D01*
X140510167Y-104410162D01*
X140853943Y-104268117D01*
X141117192Y-104005327D01*
X141259838Y-103661799D01*
X141260162Y-103289833D01*
X141118117Y-102946057D01*
X140855327Y-102682808D01*
X140511799Y-102540162D01*
X140464923Y-102540121D01*
X139110000Y-101185198D01*
X139110000Y-99725000D01*
X139052148Y-99434161D01*
X138887401Y-99187599D01*
X136335122Y-96635320D01*
X136335162Y-96589833D01*
X136193117Y-96246057D01*
X135930327Y-95982808D01*
X135586799Y-95840162D01*
X135214833Y-95839838D01*
X134871057Y-95981883D01*
X134607808Y-96244673D01*
X134465162Y-96588201D01*
X134464838Y-96960167D01*
X130631000Y-96960167D01*
X130631000Y-93150000D01*
X133252560Y-93150000D01*
X133252560Y-94850000D01*
X133296838Y-95085317D01*
X133435910Y-95301441D01*
X133648110Y-95446431D01*
X133900000Y-95497440D01*
X135600000Y-95497440D01*
X135835317Y-95453162D01*
X136051441Y-95314090D01*
X136196431Y-95101890D01*
X136210086Y-95034459D01*
X136239946Y-95079147D01*
X136721715Y-95401054D01*
X137290000Y-95514093D01*
X137858285Y-95401054D01*
X138340054Y-95079147D01*
X138661961Y-94597378D01*
X138775000Y-94029093D01*
X138775000Y-93970907D01*
X140885000Y-93970907D01*
X140885000Y-94029093D01*
X140998039Y-94597378D01*
X141319946Y-95079147D01*
X141801715Y-95401054D01*
X142370000Y-95514093D01*
X142938285Y-95401054D01*
X143420054Y-95079147D01*
X143741961Y-94597378D01*
X143855000Y-94029093D01*
X143855000Y-93970907D01*
X143844874Y-93920000D01*
X145735907Y-93920000D01*
X145848946Y-94488285D01*
X146170853Y-94970054D01*
X146500026Y-95190000D01*
X146170853Y-95409946D01*
X145848946Y-95891715D01*
X145735907Y-96460000D01*
X145848946Y-97028285D01*
X146170853Y-97510054D01*
X146212452Y-97537850D01*
X146164683Y-97546838D01*
X145948559Y-97685910D01*
X145803569Y-97898110D01*
X145752560Y-98150000D01*
X145752560Y-99850000D01*
X145796838Y-100085317D01*
X145935910Y-100301441D01*
X146148110Y-100446431D01*
X146400000Y-100497440D01*
X148100000Y-100497440D01*
X148335317Y-100453162D01*
X148551441Y-100314090D01*
X148696431Y-100101890D01*
X148747440Y-99850000D01*
X148747440Y-98150000D01*
X148703162Y-97914683D01*
X148564090Y-97698559D01*
X148351890Y-97553569D01*
X148284459Y-97539914D01*
X148329147Y-97510054D01*
X148651054Y-97028285D01*
X148764093Y-96460000D01*
X148651054Y-95891715D01*
X148329147Y-95409946D01*
X147999974Y-95190000D01*
X148329147Y-94970054D01*
X148651054Y-94488285D01*
X148764093Y-93920000D01*
X148651054Y-93351715D01*
X148329147Y-92869946D01*
X147847378Y-92548039D01*
X147279093Y-92435000D01*
X147220907Y-92435000D01*
X146652622Y-92548039D01*
X146170853Y-92869946D01*
X145848946Y-93351715D01*
X145735907Y-93920000D01*
X143844874Y-93920000D01*
X143741961Y-93402622D01*
X143420054Y-92920853D01*
X142938285Y-92598946D01*
X142370000Y-92485907D01*
X141801715Y-92598946D01*
X141319946Y-92920853D01*
X140998039Y-93402622D01*
X140885000Y-93970907D01*
X138775000Y-93970907D01*
X138661961Y-93402622D01*
X138340054Y-92920853D01*
X137858285Y-92598946D01*
X137290000Y-92485907D01*
X136721715Y-92598946D01*
X136239946Y-92920853D01*
X136212150Y-92962452D01*
X136203162Y-92914683D01*
X136064090Y-92698559D01*
X135851890Y-92553569D01*
X135600000Y-92502560D01*
X133900000Y-92502560D01*
X133664683Y-92546838D01*
X133448559Y-92685910D01*
X133303569Y-92898110D01*
X133252560Y-93150000D01*
X130631000Y-93150000D01*
X130631000Y-90880000D01*
X150420000Y-90880000D01*
X150420000Y-111939000D01*
M02*
