%FSLAX45Y45*%
G04 Gerber Fmt 4.5, Leading zero omitted, Abs format (unit mm)*
G04 Created by KiCad (PCBNEW 4.0.7) date 2017 December 09, Saturday 06:39:19*
%MOMM*%
%LPD*%
G01*
G04 APERTURE LIST*
%ADD10C,0.127000*%
%ADD11C,0.150000*%
%ADD12C,0.200000*%
%ADD13C,0.300000*%
G04 APERTURE END LIST*
D10*
D11*
X12992100Y-11264900D02*
X12992100Y-9017000D01*
X15113000Y-11264900D02*
X12992100Y-11264900D01*
X15113000Y-9017000D02*
X15113000Y-11264900D01*
X12992100Y-9017000D02*
X15113000Y-9017000D01*
D12*
X13520000Y-9657500D02*
X13560000Y-9697500D01*
X13560000Y-9657500D02*
X13520000Y-9697500D01*
X14012500Y-10327500D02*
X14052500Y-10367500D01*
X14052500Y-10327500D02*
X14012500Y-10367500D01*
X13525000Y-9400000D02*
G75*
G03X13525000Y-9400000I-50000J0D01*
G01*
X13550000Y-10875000D02*
G75*
G03X13550000Y-10875000I-50000J0D01*
G01*
X13779000Y-9400000D02*
G75*
G03X13779000Y-9400000I-50000J0D01*
G01*
X13804000Y-10875000D02*
G75*
G03X13804000Y-10875000I-50000J0D01*
G01*
X14033000Y-9400000D02*
G75*
G03X14033000Y-9400000I-50000J0D01*
G01*
X14058000Y-10875000D02*
G75*
G03X14058000Y-10875000I-50000J0D01*
G01*
X14287000Y-9400000D02*
G75*
G03X14287000Y-9400000I-50000J0D01*
G01*
X14312000Y-10875000D02*
G75*
G03X14312000Y-10875000I-50000J0D01*
G01*
X14775000Y-9392000D02*
G75*
G03X14775000Y-9392000I-50000J0D01*
G01*
X14775000Y-9646000D02*
G75*
G03X14775000Y-9646000I-50000J0D01*
G01*
X14775000Y-9900000D02*
G75*
G03X14775000Y-9900000I-50000J0D01*
G01*
X14775000Y-10367000D02*
G75*
G03X14775000Y-10367000I-50000J0D01*
G01*
X14775000Y-10621000D02*
G75*
G03X14775000Y-10621000I-50000J0D01*
G01*
X14775000Y-10875000D02*
G75*
G03X14775000Y-10875000I-50000J0D01*
G01*
D13*
X13256028Y-11738114D02*
X13256028Y-11438114D01*
X13327457Y-11438114D01*
X13370314Y-11452400D01*
X13398886Y-11480971D01*
X13413171Y-11509543D01*
X13427457Y-11566686D01*
X13427457Y-11609543D01*
X13413171Y-11666686D01*
X13398886Y-11695257D01*
X13370314Y-11723829D01*
X13327457Y-11738114D01*
X13256028Y-11738114D01*
X13556028Y-11738114D02*
X13556028Y-11538114D01*
X13556028Y-11595257D02*
X13570314Y-11566686D01*
X13584600Y-11552400D01*
X13613171Y-11538114D01*
X13641743Y-11538114D01*
X13741743Y-11738114D02*
X13741743Y-11538114D01*
X13741743Y-11438114D02*
X13727457Y-11452400D01*
X13741743Y-11466686D01*
X13756028Y-11452400D01*
X13741743Y-11438114D01*
X13741743Y-11466686D01*
X13927457Y-11738114D02*
X13898886Y-11723829D01*
X13884600Y-11695257D01*
X13884600Y-11438114D01*
X14084600Y-11738114D02*
X14056028Y-11723829D01*
X14041743Y-11695257D01*
X14041743Y-11438114D01*
X14427457Y-11738114D02*
X14427457Y-11438114D01*
X14527457Y-11652400D01*
X14627457Y-11438114D01*
X14627457Y-11738114D01*
X14898886Y-11738114D02*
X14898886Y-11580971D01*
X14884600Y-11552400D01*
X14856028Y-11538114D01*
X14798886Y-11538114D01*
X14770314Y-11552400D01*
X14898886Y-11723829D02*
X14870314Y-11738114D01*
X14798886Y-11738114D01*
X14770314Y-11723829D01*
X14756028Y-11695257D01*
X14756028Y-11666686D01*
X14770314Y-11638114D01*
X14798886Y-11623829D01*
X14870314Y-11623829D01*
X14898886Y-11609543D01*
X15041743Y-11538114D02*
X15041743Y-11838114D01*
X15041743Y-11552400D02*
X15070314Y-11538114D01*
X15127457Y-11538114D01*
X15156028Y-11552400D01*
X15170314Y-11566686D01*
X15184600Y-11595257D01*
X15184600Y-11680971D01*
X15170314Y-11709543D01*
X15156028Y-11723829D01*
X15127457Y-11738114D01*
X15070314Y-11738114D01*
X15041743Y-11723829D01*
X15313171Y-11709543D02*
X15327457Y-11723829D01*
X15313171Y-11738114D01*
X15298886Y-11723829D01*
X15313171Y-11709543D01*
X15313171Y-11738114D01*
X15313171Y-11552400D02*
X15327457Y-11566686D01*
X15313171Y-11580971D01*
X15298886Y-11566686D01*
X15313171Y-11552400D01*
X15313171Y-11580971D01*
X12944600Y-12212400D02*
X12984600Y-12252400D01*
X12984600Y-12212400D02*
X12944600Y-12252400D01*
X13313171Y-12068114D02*
X13341743Y-12068114D01*
X13370314Y-12082400D01*
X13384600Y-12096686D01*
X13398886Y-12125257D01*
X13413171Y-12182400D01*
X13413171Y-12253829D01*
X13398886Y-12310971D01*
X13384600Y-12339543D01*
X13370314Y-12353829D01*
X13341743Y-12368114D01*
X13313171Y-12368114D01*
X13284600Y-12353829D01*
X13270314Y-12339543D01*
X13256028Y-12310971D01*
X13241743Y-12253829D01*
X13241743Y-12182400D01*
X13256028Y-12125257D01*
X13270314Y-12096686D01*
X13284600Y-12082400D01*
X13313171Y-12068114D01*
X13541743Y-12339543D02*
X13556028Y-12353829D01*
X13541743Y-12368114D01*
X13527457Y-12353829D01*
X13541743Y-12339543D01*
X13541743Y-12368114D01*
X13813171Y-12168114D02*
X13813171Y-12368114D01*
X13741743Y-12053829D02*
X13670314Y-12268114D01*
X13856028Y-12268114D01*
X14027457Y-12068114D02*
X14056028Y-12068114D01*
X14084600Y-12082400D01*
X14098886Y-12096686D01*
X14113171Y-12125257D01*
X14127457Y-12182400D01*
X14127457Y-12253829D01*
X14113171Y-12310971D01*
X14098886Y-12339543D01*
X14084600Y-12353829D01*
X14056028Y-12368114D01*
X14027457Y-12368114D01*
X13998886Y-12353829D01*
X13984600Y-12339543D01*
X13970314Y-12310971D01*
X13956028Y-12253829D01*
X13956028Y-12182400D01*
X13970314Y-12125257D01*
X13984600Y-12096686D01*
X13998886Y-12082400D01*
X14027457Y-12068114D01*
X14256028Y-12368114D02*
X14256028Y-12168114D01*
X14256028Y-12196686D02*
X14270314Y-12182400D01*
X14298886Y-12168114D01*
X14341743Y-12168114D01*
X14370314Y-12182400D01*
X14384600Y-12210971D01*
X14384600Y-12368114D01*
X14384600Y-12210971D02*
X14398886Y-12182400D01*
X14427457Y-12168114D01*
X14470314Y-12168114D01*
X14498886Y-12182400D01*
X14513171Y-12210971D01*
X14513171Y-12368114D01*
X14656028Y-12368114D02*
X14656028Y-12168114D01*
X14656028Y-12196686D02*
X14670314Y-12182400D01*
X14698886Y-12168114D01*
X14741743Y-12168114D01*
X14770314Y-12182400D01*
X14784600Y-12210971D01*
X14784600Y-12368114D01*
X14784600Y-12210971D02*
X14798886Y-12182400D01*
X14827457Y-12168114D01*
X14870314Y-12168114D01*
X14898886Y-12182400D01*
X14913171Y-12210971D01*
X14913171Y-12368114D01*
X15498886Y-12053829D02*
X15241743Y-12439543D01*
X15884600Y-12068114D02*
X15913171Y-12068114D01*
X15941743Y-12082400D01*
X15956028Y-12096686D01*
X15970314Y-12125257D01*
X15984600Y-12182400D01*
X15984600Y-12253829D01*
X15970314Y-12310971D01*
X15956028Y-12339543D01*
X15941743Y-12353829D01*
X15913171Y-12368114D01*
X15884600Y-12368114D01*
X15856028Y-12353829D01*
X15841743Y-12339543D01*
X15827457Y-12310971D01*
X15813171Y-12253829D01*
X15813171Y-12182400D01*
X15827457Y-12125257D01*
X15841743Y-12096686D01*
X15856028Y-12082400D01*
X15884600Y-12068114D01*
X16113171Y-12339543D02*
X16127457Y-12353829D01*
X16113171Y-12368114D01*
X16098886Y-12353829D01*
X16113171Y-12339543D01*
X16113171Y-12368114D01*
X16313171Y-12068114D02*
X16341743Y-12068114D01*
X16370314Y-12082400D01*
X16384600Y-12096686D01*
X16398885Y-12125257D01*
X16413171Y-12182400D01*
X16413171Y-12253829D01*
X16398885Y-12310971D01*
X16384600Y-12339543D01*
X16370314Y-12353829D01*
X16341743Y-12368114D01*
X16313171Y-12368114D01*
X16284600Y-12353829D01*
X16270314Y-12339543D01*
X16256028Y-12310971D01*
X16241743Y-12253829D01*
X16241743Y-12182400D01*
X16256028Y-12125257D01*
X16270314Y-12096686D01*
X16284600Y-12082400D01*
X16313171Y-12068114D01*
X16698885Y-12368114D02*
X16527457Y-12368114D01*
X16613171Y-12368114D02*
X16613171Y-12068114D01*
X16584600Y-12110971D01*
X16556028Y-12139543D01*
X16527457Y-12153829D01*
X16956028Y-12068114D02*
X16898886Y-12068114D01*
X16870314Y-12082400D01*
X16856028Y-12096686D01*
X16827457Y-12139543D01*
X16813171Y-12196686D01*
X16813171Y-12310971D01*
X16827457Y-12339543D01*
X16841743Y-12353829D01*
X16870314Y-12368114D01*
X16927457Y-12368114D01*
X16956028Y-12353829D01*
X16970314Y-12339543D01*
X16984600Y-12310971D01*
X16984600Y-12239543D01*
X16970314Y-12210971D01*
X16956028Y-12196686D01*
X16927457Y-12182400D01*
X16870314Y-12182400D01*
X16841743Y-12196686D01*
X16827457Y-12210971D01*
X16813171Y-12239543D01*
X17098886Y-12068114D02*
X17098886Y-12125257D01*
X17213171Y-12068114D02*
X17213171Y-12125257D01*
X17656028Y-12482400D02*
X17641743Y-12468114D01*
X17613171Y-12425257D01*
X17598886Y-12396686D01*
X17584600Y-12353829D01*
X17570314Y-12282400D01*
X17570314Y-12225257D01*
X17584600Y-12153829D01*
X17598886Y-12110971D01*
X17613171Y-12082400D01*
X17641743Y-12039543D01*
X17656028Y-12025257D01*
X17756028Y-12096686D02*
X17770314Y-12082400D01*
X17798886Y-12068114D01*
X17870314Y-12068114D01*
X17898886Y-12082400D01*
X17913171Y-12096686D01*
X17927457Y-12125257D01*
X17927457Y-12153829D01*
X17913171Y-12196686D01*
X17741743Y-12368114D01*
X17927457Y-12368114D01*
X18284600Y-12368114D02*
X18284600Y-12068114D01*
X18413171Y-12368114D02*
X18413171Y-12210971D01*
X18398886Y-12182400D01*
X18370314Y-12168114D01*
X18327457Y-12168114D01*
X18298886Y-12182400D01*
X18284600Y-12196686D01*
X18598886Y-12368114D02*
X18570314Y-12353829D01*
X18556028Y-12339543D01*
X18541743Y-12310971D01*
X18541743Y-12225257D01*
X18556028Y-12196686D01*
X18570314Y-12182400D01*
X18598886Y-12168114D01*
X18641743Y-12168114D01*
X18670314Y-12182400D01*
X18684600Y-12196686D01*
X18698886Y-12225257D01*
X18698886Y-12310971D01*
X18684600Y-12339543D01*
X18670314Y-12353829D01*
X18641743Y-12368114D01*
X18598886Y-12368114D01*
X18870314Y-12368114D02*
X18841743Y-12353829D01*
X18827457Y-12325257D01*
X18827457Y-12068114D01*
X19098886Y-12353829D02*
X19070314Y-12368114D01*
X19013171Y-12368114D01*
X18984600Y-12353829D01*
X18970314Y-12325257D01*
X18970314Y-12210971D01*
X18984600Y-12182400D01*
X19013171Y-12168114D01*
X19070314Y-12168114D01*
X19098886Y-12182400D01*
X19113171Y-12210971D01*
X19113171Y-12239543D01*
X18970314Y-12268114D01*
X19227457Y-12353829D02*
X19256029Y-12368114D01*
X19313171Y-12368114D01*
X19341743Y-12353829D01*
X19356029Y-12325257D01*
X19356029Y-12310971D01*
X19341743Y-12282400D01*
X19313171Y-12268114D01*
X19270314Y-12268114D01*
X19241743Y-12253829D01*
X19227457Y-12225257D01*
X19227457Y-12210971D01*
X19241743Y-12182400D01*
X19270314Y-12168114D01*
X19313171Y-12168114D01*
X19341743Y-12182400D01*
X19456028Y-12482400D02*
X19470314Y-12468114D01*
X19498886Y-12425257D01*
X19513171Y-12396686D01*
X19527457Y-12353829D01*
X19541743Y-12282400D01*
X19541743Y-12225257D01*
X19527457Y-12153829D01*
X19513171Y-12110971D01*
X19498886Y-12082400D01*
X19470314Y-12039543D01*
X19456028Y-12025257D01*
X12984600Y-12628400D02*
G75*
G03X12984600Y-12628400I-50000J0D01*
G01*
X13413171Y-12764114D02*
X13241743Y-12764114D01*
X13327457Y-12764114D02*
X13327457Y-12464114D01*
X13298886Y-12506971D01*
X13270314Y-12535543D01*
X13241743Y-12549829D01*
X13541743Y-12735543D02*
X13556028Y-12749829D01*
X13541743Y-12764114D01*
X13527457Y-12749829D01*
X13541743Y-12735543D01*
X13541743Y-12764114D01*
X13741743Y-12464114D02*
X13770314Y-12464114D01*
X13798886Y-12478400D01*
X13813171Y-12492686D01*
X13827457Y-12521257D01*
X13841743Y-12578400D01*
X13841743Y-12649829D01*
X13827457Y-12706971D01*
X13813171Y-12735543D01*
X13798886Y-12749829D01*
X13770314Y-12764114D01*
X13741743Y-12764114D01*
X13713171Y-12749829D01*
X13698886Y-12735543D01*
X13684600Y-12706971D01*
X13670314Y-12649829D01*
X13670314Y-12578400D01*
X13684600Y-12521257D01*
X13698886Y-12492686D01*
X13713171Y-12478400D01*
X13741743Y-12464114D01*
X14027457Y-12464114D02*
X14056028Y-12464114D01*
X14084600Y-12478400D01*
X14098886Y-12492686D01*
X14113171Y-12521257D01*
X14127457Y-12578400D01*
X14127457Y-12649829D01*
X14113171Y-12706971D01*
X14098886Y-12735543D01*
X14084600Y-12749829D01*
X14056028Y-12764114D01*
X14027457Y-12764114D01*
X13998886Y-12749829D01*
X13984600Y-12735543D01*
X13970314Y-12706971D01*
X13956028Y-12649829D01*
X13956028Y-12578400D01*
X13970314Y-12521257D01*
X13984600Y-12492686D01*
X13998886Y-12478400D01*
X14027457Y-12464114D01*
X14256028Y-12764114D02*
X14256028Y-12564114D01*
X14256028Y-12592686D02*
X14270314Y-12578400D01*
X14298886Y-12564114D01*
X14341743Y-12564114D01*
X14370314Y-12578400D01*
X14384600Y-12606971D01*
X14384600Y-12764114D01*
X14384600Y-12606971D02*
X14398886Y-12578400D01*
X14427457Y-12564114D01*
X14470314Y-12564114D01*
X14498886Y-12578400D01*
X14513171Y-12606971D01*
X14513171Y-12764114D01*
X14656028Y-12764114D02*
X14656028Y-12564114D01*
X14656028Y-12592686D02*
X14670314Y-12578400D01*
X14698886Y-12564114D01*
X14741743Y-12564114D01*
X14770314Y-12578400D01*
X14784600Y-12606971D01*
X14784600Y-12764114D01*
X14784600Y-12606971D02*
X14798886Y-12578400D01*
X14827457Y-12564114D01*
X14870314Y-12564114D01*
X14898886Y-12578400D01*
X14913171Y-12606971D01*
X14913171Y-12764114D01*
X15498886Y-12449829D02*
X15241743Y-12835543D01*
X15884600Y-12464114D02*
X15913171Y-12464114D01*
X15941743Y-12478400D01*
X15956028Y-12492686D01*
X15970314Y-12521257D01*
X15984600Y-12578400D01*
X15984600Y-12649829D01*
X15970314Y-12706971D01*
X15956028Y-12735543D01*
X15941743Y-12749829D01*
X15913171Y-12764114D01*
X15884600Y-12764114D01*
X15856028Y-12749829D01*
X15841743Y-12735543D01*
X15827457Y-12706971D01*
X15813171Y-12649829D01*
X15813171Y-12578400D01*
X15827457Y-12521257D01*
X15841743Y-12492686D01*
X15856028Y-12478400D01*
X15884600Y-12464114D01*
X16113171Y-12735543D02*
X16127457Y-12749829D01*
X16113171Y-12764114D01*
X16098886Y-12749829D01*
X16113171Y-12735543D01*
X16113171Y-12764114D01*
X16313171Y-12464114D02*
X16341743Y-12464114D01*
X16370314Y-12478400D01*
X16384600Y-12492686D01*
X16398885Y-12521257D01*
X16413171Y-12578400D01*
X16413171Y-12649829D01*
X16398885Y-12706971D01*
X16384600Y-12735543D01*
X16370314Y-12749829D01*
X16341743Y-12764114D01*
X16313171Y-12764114D01*
X16284600Y-12749829D01*
X16270314Y-12735543D01*
X16256028Y-12706971D01*
X16241743Y-12649829D01*
X16241743Y-12578400D01*
X16256028Y-12521257D01*
X16270314Y-12492686D01*
X16284600Y-12478400D01*
X16313171Y-12464114D01*
X16513171Y-12464114D02*
X16698885Y-12464114D01*
X16598885Y-12578400D01*
X16641743Y-12578400D01*
X16670314Y-12592686D01*
X16684600Y-12606971D01*
X16698885Y-12635543D01*
X16698885Y-12706971D01*
X16684600Y-12735543D01*
X16670314Y-12749829D01*
X16641743Y-12764114D01*
X16556028Y-12764114D01*
X16527457Y-12749829D01*
X16513171Y-12735543D01*
X16841743Y-12764114D02*
X16898886Y-12764114D01*
X16927457Y-12749829D01*
X16941743Y-12735543D01*
X16970314Y-12692686D01*
X16984600Y-12635543D01*
X16984600Y-12521257D01*
X16970314Y-12492686D01*
X16956028Y-12478400D01*
X16927457Y-12464114D01*
X16870314Y-12464114D01*
X16841743Y-12478400D01*
X16827457Y-12492686D01*
X16813171Y-12521257D01*
X16813171Y-12592686D01*
X16827457Y-12621257D01*
X16841743Y-12635543D01*
X16870314Y-12649829D01*
X16927457Y-12649829D01*
X16956028Y-12635543D01*
X16970314Y-12621257D01*
X16984600Y-12592686D01*
X17098886Y-12464114D02*
X17098886Y-12521257D01*
X17213171Y-12464114D02*
X17213171Y-12521257D01*
X17656028Y-12878400D02*
X17641743Y-12864114D01*
X17613171Y-12821257D01*
X17598886Y-12792686D01*
X17584600Y-12749829D01*
X17570314Y-12678400D01*
X17570314Y-12621257D01*
X17584600Y-12549829D01*
X17598886Y-12506971D01*
X17613171Y-12478400D01*
X17641743Y-12435543D01*
X17656028Y-12421257D01*
X17927457Y-12764114D02*
X17756028Y-12764114D01*
X17841743Y-12764114D02*
X17841743Y-12464114D01*
X17813171Y-12506971D01*
X17784600Y-12535543D01*
X17756028Y-12549829D01*
X18184600Y-12564114D02*
X18184600Y-12764114D01*
X18113171Y-12449829D02*
X18041743Y-12664114D01*
X18227457Y-12664114D01*
X18570314Y-12764114D02*
X18570314Y-12464114D01*
X18698886Y-12764114D02*
X18698886Y-12606971D01*
X18684600Y-12578400D01*
X18656028Y-12564114D01*
X18613171Y-12564114D01*
X18584600Y-12578400D01*
X18570314Y-12592686D01*
X18884600Y-12764114D02*
X18856028Y-12749829D01*
X18841743Y-12735543D01*
X18827457Y-12706971D01*
X18827457Y-12621257D01*
X18841743Y-12592686D01*
X18856028Y-12578400D01*
X18884600Y-12564114D01*
X18927457Y-12564114D01*
X18956028Y-12578400D01*
X18970314Y-12592686D01*
X18984600Y-12621257D01*
X18984600Y-12706971D01*
X18970314Y-12735543D01*
X18956028Y-12749829D01*
X18927457Y-12764114D01*
X18884600Y-12764114D01*
X19156028Y-12764114D02*
X19127457Y-12749829D01*
X19113171Y-12721257D01*
X19113171Y-12464114D01*
X19384600Y-12749829D02*
X19356029Y-12764114D01*
X19298886Y-12764114D01*
X19270314Y-12749829D01*
X19256029Y-12721257D01*
X19256029Y-12606971D01*
X19270314Y-12578400D01*
X19298886Y-12564114D01*
X19356029Y-12564114D01*
X19384600Y-12578400D01*
X19398886Y-12606971D01*
X19398886Y-12635543D01*
X19256029Y-12664114D01*
X19513171Y-12749829D02*
X19541743Y-12764114D01*
X19598886Y-12764114D01*
X19627457Y-12749829D01*
X19641743Y-12721257D01*
X19641743Y-12706971D01*
X19627457Y-12678400D01*
X19598886Y-12664114D01*
X19556029Y-12664114D01*
X19527457Y-12649829D01*
X19513171Y-12621257D01*
X19513171Y-12606971D01*
X19527457Y-12578400D01*
X19556029Y-12564114D01*
X19598886Y-12564114D01*
X19627457Y-12578400D01*
X19741743Y-12878400D02*
X19756029Y-12864114D01*
X19784600Y-12821257D01*
X19798886Y-12792686D01*
X19813171Y-12749829D01*
X19827457Y-12678400D01*
X19827457Y-12621257D01*
X19813171Y-12549829D01*
X19798886Y-12506971D01*
X19784600Y-12478400D01*
X19756029Y-12435543D01*
X19741743Y-12421257D01*
M02*
