G04 #@! TF.FileFunction,Legend,Top*
%FSLAX46Y46*%
G04 Gerber Fmt 4.6, Leading zero omitted, Abs format (unit mm)*
G04 Created by KiCad (PCBNEW 4.0.7) date 2017 December 09, Saturday 06:19:51*
%MOMM*%
%LPD*%
G01*
G04 APERTURE LIST*
%ADD10C,0.100000*%
%ADD11C,0.150000*%
%ADD12C,0.120000*%
G04 APERTURE END LIST*
D10*
X142416667Y-91352381D02*
X142750000Y-92352381D01*
X143083334Y-91352381D01*
X143988096Y-92257143D02*
X143940477Y-92304762D01*
X143797620Y-92352381D01*
X143702382Y-92352381D01*
X143559524Y-92304762D01*
X143464286Y-92209524D01*
X143416667Y-92114286D01*
X143369048Y-91923810D01*
X143369048Y-91780952D01*
X143416667Y-91590476D01*
X143464286Y-91495238D01*
X143559524Y-91400000D01*
X143702382Y-91352381D01*
X143797620Y-91352381D01*
X143940477Y-91400000D01*
X143988096Y-91447619D01*
X144988096Y-92257143D02*
X144940477Y-92304762D01*
X144797620Y-92352381D01*
X144702382Y-92352381D01*
X144559524Y-92304762D01*
X144464286Y-92209524D01*
X144416667Y-92114286D01*
X144369048Y-91923810D01*
X144369048Y-91780952D01*
X144416667Y-91590476D01*
X144464286Y-91495238D01*
X144559524Y-91400000D01*
X144702382Y-91352381D01*
X144797620Y-91352381D01*
X144940477Y-91400000D01*
X144988096Y-91447619D01*
X139538096Y-91400000D02*
X139442858Y-91352381D01*
X139300001Y-91352381D01*
X139157143Y-91400000D01*
X139061905Y-91495238D01*
X139014286Y-91590476D01*
X138966667Y-91780952D01*
X138966667Y-91923810D01*
X139014286Y-92114286D01*
X139061905Y-92209524D01*
X139157143Y-92304762D01*
X139300001Y-92352381D01*
X139395239Y-92352381D01*
X139538096Y-92304762D01*
X139585715Y-92257143D01*
X139585715Y-91923810D01*
X139395239Y-91923810D01*
X140014286Y-92352381D02*
X140014286Y-91352381D01*
X140585715Y-92352381D01*
X140585715Y-91352381D01*
X141061905Y-92352381D02*
X141061905Y-91352381D01*
X141300000Y-91352381D01*
X141442858Y-91400000D01*
X141538096Y-91495238D01*
X141585715Y-91590476D01*
X141633334Y-91780952D01*
X141633334Y-91923810D01*
X141585715Y-92114286D01*
X141538096Y-92209524D01*
X141442858Y-92304762D01*
X141300000Y-92352381D01*
X141061905Y-92352381D01*
X136352381Y-92352381D02*
X136019047Y-91876190D01*
X135780952Y-92352381D02*
X135780952Y-91352381D01*
X136161905Y-91352381D01*
X136257143Y-91400000D01*
X136304762Y-91447619D01*
X136352381Y-91542857D01*
X136352381Y-91685714D01*
X136304762Y-91780952D01*
X136257143Y-91828571D01*
X136161905Y-91876190D01*
X135780952Y-91876190D01*
X136733333Y-92304762D02*
X136876190Y-92352381D01*
X137114286Y-92352381D01*
X137209524Y-92304762D01*
X137257143Y-92257143D01*
X137304762Y-92161905D01*
X137304762Y-92066667D01*
X137257143Y-91971429D01*
X137209524Y-91923810D01*
X137114286Y-91876190D01*
X136923809Y-91828571D01*
X136828571Y-91780952D01*
X136780952Y-91733333D01*
X136733333Y-91638095D01*
X136733333Y-91542857D01*
X136780952Y-91447619D01*
X136828571Y-91400000D01*
X136923809Y-91352381D01*
X137161905Y-91352381D01*
X137304762Y-91400000D01*
X137590476Y-91352381D02*
X138161905Y-91352381D01*
X137876190Y-92352381D02*
X137876190Y-91352381D01*
X132411905Y-92352381D02*
X132411905Y-91352381D01*
X132792858Y-91352381D01*
X132888096Y-91400000D01*
X132935715Y-91447619D01*
X132983334Y-91542857D01*
X132983334Y-91685714D01*
X132935715Y-91780952D01*
X132888096Y-91828571D01*
X132792858Y-91876190D01*
X132411905Y-91876190D01*
X133745239Y-91828571D02*
X133888096Y-91876190D01*
X133935715Y-91923810D01*
X133983334Y-92019048D01*
X133983334Y-92161905D01*
X133935715Y-92257143D01*
X133888096Y-92304762D01*
X133792858Y-92352381D01*
X133411905Y-92352381D01*
X133411905Y-91352381D01*
X133745239Y-91352381D01*
X133840477Y-91400000D01*
X133888096Y-91447619D01*
X133935715Y-91542857D01*
X133935715Y-91638095D01*
X133888096Y-91733333D01*
X133840477Y-91780952D01*
X133745239Y-91828571D01*
X133411905Y-91828571D01*
X134602381Y-91352381D02*
X134697620Y-91352381D01*
X134792858Y-91400000D01*
X134840477Y-91447619D01*
X134888096Y-91542857D01*
X134935715Y-91733333D01*
X134935715Y-91971429D01*
X134888096Y-92161905D01*
X134840477Y-92257143D01*
X134792858Y-92304762D01*
X134697620Y-92352381D01*
X134602381Y-92352381D01*
X134507143Y-92304762D01*
X134459524Y-92257143D01*
X134411905Y-92161905D01*
X134364286Y-91971429D01*
X134364286Y-91733333D01*
X134411905Y-91542857D01*
X134459524Y-91447619D01*
X134507143Y-91400000D01*
X134602381Y-91352381D01*
X142611905Y-111702381D02*
X142611905Y-110702381D01*
X142992858Y-110702381D01*
X143088096Y-110750000D01*
X143135715Y-110797619D01*
X143183334Y-110892857D01*
X143183334Y-111035714D01*
X143135715Y-111130952D01*
X143088096Y-111178571D01*
X142992858Y-111226190D01*
X142611905Y-111226190D01*
X143945239Y-111178571D02*
X144088096Y-111226190D01*
X144135715Y-111273810D01*
X144183334Y-111369048D01*
X144183334Y-111511905D01*
X144135715Y-111607143D01*
X144088096Y-111654762D01*
X143992858Y-111702381D01*
X143611905Y-111702381D01*
X143611905Y-110702381D01*
X143945239Y-110702381D01*
X144040477Y-110750000D01*
X144088096Y-110797619D01*
X144135715Y-110892857D01*
X144135715Y-110988095D01*
X144088096Y-111083333D01*
X144040477Y-111130952D01*
X143945239Y-111178571D01*
X143611905Y-111178571D01*
X145135715Y-111702381D02*
X144564286Y-111702381D01*
X144850000Y-111702381D02*
X144850000Y-110702381D01*
X144754762Y-110845238D01*
X144659524Y-110940476D01*
X144564286Y-110988095D01*
X139161905Y-111702381D02*
X139161905Y-110702381D01*
X139542858Y-110702381D01*
X139638096Y-110750000D01*
X139685715Y-110797619D01*
X139733334Y-110892857D01*
X139733334Y-111035714D01*
X139685715Y-111130952D01*
X139638096Y-111178571D01*
X139542858Y-111226190D01*
X139161905Y-111226190D01*
X140495239Y-111178571D02*
X140638096Y-111226190D01*
X140685715Y-111273810D01*
X140733334Y-111369048D01*
X140733334Y-111511905D01*
X140685715Y-111607143D01*
X140638096Y-111654762D01*
X140542858Y-111702381D01*
X140161905Y-111702381D01*
X140161905Y-110702381D01*
X140495239Y-110702381D01*
X140590477Y-110750000D01*
X140638096Y-110797619D01*
X140685715Y-110892857D01*
X140685715Y-110988095D01*
X140638096Y-111083333D01*
X140590477Y-111130952D01*
X140495239Y-111178571D01*
X140161905Y-111178571D01*
X141114286Y-110797619D02*
X141161905Y-110750000D01*
X141257143Y-110702381D01*
X141495239Y-110702381D01*
X141590477Y-110750000D01*
X141638096Y-110797619D01*
X141685715Y-110892857D01*
X141685715Y-110988095D01*
X141638096Y-111130952D01*
X141066667Y-111702381D01*
X141685715Y-111702381D01*
X135811905Y-111702381D02*
X135811905Y-110702381D01*
X136192858Y-110702381D01*
X136288096Y-110750000D01*
X136335715Y-110797619D01*
X136383334Y-110892857D01*
X136383334Y-111035714D01*
X136335715Y-111130952D01*
X136288096Y-111178571D01*
X136192858Y-111226190D01*
X135811905Y-111226190D01*
X137145239Y-111178571D02*
X137288096Y-111226190D01*
X137335715Y-111273810D01*
X137383334Y-111369048D01*
X137383334Y-111511905D01*
X137335715Y-111607143D01*
X137288096Y-111654762D01*
X137192858Y-111702381D01*
X136811905Y-111702381D01*
X136811905Y-110702381D01*
X137145239Y-110702381D01*
X137240477Y-110750000D01*
X137288096Y-110797619D01*
X137335715Y-110892857D01*
X137335715Y-110988095D01*
X137288096Y-111083333D01*
X137240477Y-111130952D01*
X137145239Y-111178571D01*
X136811905Y-111178571D01*
X137716667Y-110702381D02*
X138335715Y-110702381D01*
X138002381Y-111083333D01*
X138145239Y-111083333D01*
X138240477Y-111130952D01*
X138288096Y-111178571D01*
X138335715Y-111273810D01*
X138335715Y-111511905D01*
X138288096Y-111607143D01*
X138240477Y-111654762D01*
X138145239Y-111702381D01*
X137859524Y-111702381D01*
X137764286Y-111654762D01*
X137716667Y-111607143D01*
X131911905Y-111652381D02*
X131911905Y-110652381D01*
X132292858Y-110652381D01*
X132388096Y-110700000D01*
X132435715Y-110747619D01*
X132483334Y-110842857D01*
X132483334Y-110985714D01*
X132435715Y-111080952D01*
X132388096Y-111128571D01*
X132292858Y-111176190D01*
X131911905Y-111176190D01*
X133245239Y-111128571D02*
X133388096Y-111176190D01*
X133435715Y-111223810D01*
X133483334Y-111319048D01*
X133483334Y-111461905D01*
X133435715Y-111557143D01*
X133388096Y-111604762D01*
X133292858Y-111652381D01*
X132911905Y-111652381D01*
X132911905Y-110652381D01*
X133245239Y-110652381D01*
X133340477Y-110700000D01*
X133388096Y-110747619D01*
X133435715Y-110842857D01*
X133435715Y-110938095D01*
X133388096Y-111033333D01*
X133340477Y-111080952D01*
X133245239Y-111128571D01*
X132911905Y-111128571D01*
X134340477Y-110985714D02*
X134340477Y-111652381D01*
X134102381Y-110604762D02*
X133864286Y-111319048D01*
X134483334Y-111319048D01*
D11*
X135750000Y-98795000D02*
X135750000Y-99000000D01*
X141250000Y-98795000D02*
X141250000Y-99095000D01*
X141250000Y-104305000D02*
X141250000Y-104005000D01*
X135750000Y-104305000D02*
X135750000Y-104005000D01*
X135750000Y-98795000D02*
X141250000Y-98795000D01*
X135750000Y-104305000D02*
X141250000Y-104305000D01*
X135750000Y-99000000D02*
X134000000Y-99000000D01*
D12*
X143950000Y-110080000D02*
X143950000Y-107420000D01*
X136270000Y-110080000D02*
X143950000Y-110080000D01*
X136270000Y-107420000D02*
X143950000Y-107420000D01*
X136270000Y-110080000D02*
X136270000Y-107420000D01*
X135000000Y-110080000D02*
X133670000Y-110080000D01*
X133670000Y-110080000D02*
X133670000Y-108750000D01*
X143700000Y-95330000D02*
X143700000Y-92670000D01*
X136020000Y-95330000D02*
X143700000Y-95330000D01*
X136020000Y-92670000D02*
X143700000Y-92670000D01*
X136020000Y-95330000D02*
X136020000Y-92670000D01*
X134750000Y-95330000D02*
X133420000Y-95330000D01*
X133420000Y-95330000D02*
X133420000Y-94000000D01*
X148580000Y-102340000D02*
X145920000Y-102340000D01*
X148580000Y-107480000D02*
X148580000Y-102340000D01*
X145920000Y-107480000D02*
X145920000Y-102340000D01*
X148580000Y-107480000D02*
X145920000Y-107480000D01*
X148580000Y-108750000D02*
X148580000Y-110080000D01*
X148580000Y-110080000D02*
X147250000Y-110080000D01*
X148580000Y-92590000D02*
X145920000Y-92590000D01*
X148580000Y-97730000D02*
X148580000Y-92590000D01*
X145920000Y-97730000D02*
X145920000Y-92590000D01*
X148580000Y-97730000D02*
X145920000Y-97730000D01*
X148580000Y-99000000D02*
X148580000Y-100330000D01*
X148580000Y-100330000D02*
X147250000Y-100330000D01*
D11*
X142000000Y-97850000D02*
X143000000Y-97850000D01*
X143000000Y-96150000D02*
X142000000Y-96150000D01*
X136523810Y-100202381D02*
X136523810Y-99202381D01*
X137571429Y-100107143D02*
X137523810Y-100154762D01*
X137380953Y-100202381D01*
X137285715Y-100202381D01*
X137142857Y-100154762D01*
X137047619Y-100059524D01*
X137000000Y-99964286D01*
X136952381Y-99773810D01*
X136952381Y-99630952D01*
X137000000Y-99440476D01*
X137047619Y-99345238D01*
X137142857Y-99250000D01*
X137285715Y-99202381D01*
X137380953Y-99202381D01*
X137523810Y-99250000D01*
X137571429Y-99297619D01*
X138523810Y-100202381D02*
X137952381Y-100202381D01*
X138238095Y-100202381D02*
X138238095Y-99202381D01*
X138142857Y-99345238D01*
X138047619Y-99440476D01*
X137952381Y-99488095D01*
X134261905Y-105396667D02*
X134738096Y-105396667D01*
X134166667Y-105682381D02*
X134500000Y-104682381D01*
X134833334Y-105682381D01*
X135023810Y-104682381D02*
X135595239Y-104682381D01*
X135309524Y-105682381D02*
X135309524Y-104682381D01*
X135785715Y-104682381D02*
X136357144Y-104682381D01*
X136071429Y-105682381D02*
X136071429Y-104682381D01*
X136690477Y-105682381D02*
X136690477Y-104682381D01*
X137166667Y-105682381D02*
X137166667Y-104682381D01*
X137738096Y-105682381D01*
X137738096Y-104682381D01*
X138404762Y-105206190D02*
X138404762Y-105682381D01*
X138071429Y-104682381D02*
X138404762Y-105206190D01*
X138738096Y-104682381D01*
X139214286Y-105110952D02*
X139119048Y-105063333D01*
X139071429Y-105015714D01*
X139023810Y-104920476D01*
X139023810Y-104872857D01*
X139071429Y-104777619D01*
X139119048Y-104730000D01*
X139214286Y-104682381D01*
X139404763Y-104682381D01*
X139500001Y-104730000D01*
X139547620Y-104777619D01*
X139595239Y-104872857D01*
X139595239Y-104920476D01*
X139547620Y-105015714D01*
X139500001Y-105063333D01*
X139404763Y-105110952D01*
X139214286Y-105110952D01*
X139119048Y-105158571D01*
X139071429Y-105206190D01*
X139023810Y-105301429D01*
X139023810Y-105491905D01*
X139071429Y-105587143D01*
X139119048Y-105634762D01*
X139214286Y-105682381D01*
X139404763Y-105682381D01*
X139500001Y-105634762D01*
X139547620Y-105587143D01*
X139595239Y-105491905D01*
X139595239Y-105301429D01*
X139547620Y-105206190D01*
X139500001Y-105158571D01*
X139404763Y-105110952D01*
X140500001Y-104682381D02*
X140023810Y-104682381D01*
X139976191Y-105158571D01*
X140023810Y-105110952D01*
X140119048Y-105063333D01*
X140357144Y-105063333D01*
X140452382Y-105110952D01*
X140500001Y-105158571D01*
X140547620Y-105253810D01*
X140547620Y-105491905D01*
X140500001Y-105587143D01*
X140452382Y-105634762D01*
X140357144Y-105682381D01*
X140119048Y-105682381D01*
X140023810Y-105634762D01*
X139976191Y-105587143D01*
X140976191Y-105301429D02*
X141738096Y-105301429D01*
X142166667Y-105634762D02*
X142309524Y-105682381D01*
X142547620Y-105682381D01*
X142642858Y-105634762D01*
X142690477Y-105587143D01*
X142738096Y-105491905D01*
X142738096Y-105396667D01*
X142690477Y-105301429D01*
X142642858Y-105253810D01*
X142547620Y-105206190D01*
X142357143Y-105158571D01*
X142261905Y-105110952D01*
X142214286Y-105063333D01*
X142166667Y-104968095D01*
X142166667Y-104872857D01*
X142214286Y-104777619D01*
X142261905Y-104730000D01*
X142357143Y-104682381D01*
X142595239Y-104682381D01*
X142738096Y-104730000D01*
X149452381Y-104833333D02*
X150166667Y-104833333D01*
X150309524Y-104880953D01*
X150404762Y-104976191D01*
X150452381Y-105119048D01*
X150452381Y-105214286D01*
X149547619Y-104404762D02*
X149500000Y-104357143D01*
X149452381Y-104261905D01*
X149452381Y-104023809D01*
X149500000Y-103928571D01*
X149547619Y-103880952D01*
X149642857Y-103833333D01*
X149738095Y-103833333D01*
X149880952Y-103880952D01*
X150452381Y-104452381D01*
X150452381Y-103833333D01*
X149500000Y-108261904D02*
X149452381Y-108357142D01*
X149452381Y-108499999D01*
X149500000Y-108642857D01*
X149595238Y-108738095D01*
X149690476Y-108785714D01*
X149880952Y-108833333D01*
X150023810Y-108833333D01*
X150214286Y-108785714D01*
X150309524Y-108738095D01*
X150404762Y-108642857D01*
X150452381Y-108499999D01*
X150452381Y-108404761D01*
X150404762Y-108261904D01*
X150357143Y-108214285D01*
X150023810Y-108214285D01*
X150023810Y-108404761D01*
X150452381Y-107785714D02*
X149452381Y-107785714D01*
X150452381Y-107214285D01*
X149452381Y-107214285D01*
X150452381Y-106738095D02*
X149452381Y-106738095D01*
X149452381Y-106500000D01*
X149500000Y-106357142D01*
X149595238Y-106261904D01*
X149690476Y-106214285D01*
X149880952Y-106166666D01*
X150023810Y-106166666D01*
X150214286Y-106214285D01*
X150309524Y-106261904D01*
X150404762Y-106357142D01*
X150452381Y-106500000D01*
X150452381Y-106738095D01*
X149202381Y-94583333D02*
X149916667Y-94583333D01*
X150059524Y-94630953D01*
X150154762Y-94726191D01*
X150202381Y-94869048D01*
X150202381Y-94964286D01*
X149535714Y-93678571D02*
X150202381Y-93678571D01*
X149154762Y-93916667D02*
X149869048Y-94154762D01*
X149869048Y-93535714D01*
X149202381Y-98583333D02*
X150202381Y-98250000D01*
X149202381Y-97916666D01*
X150107143Y-97011904D02*
X150154762Y-97059523D01*
X150202381Y-97202380D01*
X150202381Y-97297618D01*
X150154762Y-97440476D01*
X150059524Y-97535714D01*
X149964286Y-97583333D01*
X149773810Y-97630952D01*
X149630952Y-97630952D01*
X149440476Y-97583333D01*
X149345238Y-97535714D01*
X149250000Y-97440476D01*
X149202381Y-97297618D01*
X149202381Y-97202380D01*
X149250000Y-97059523D01*
X149297619Y-97011904D01*
X150107143Y-96011904D02*
X150154762Y-96059523D01*
X150202381Y-96202380D01*
X150202381Y-96297618D01*
X150154762Y-96440476D01*
X150059524Y-96535714D01*
X149964286Y-96583333D01*
X149773810Y-96630952D01*
X149630952Y-96630952D01*
X149440476Y-96583333D01*
X149345238Y-96535714D01*
X149250000Y-96440476D01*
X149202381Y-96297618D01*
X149202381Y-96202380D01*
X149250000Y-96059523D01*
X149297619Y-96011904D01*
X139433334Y-97357143D02*
X139385715Y-97404762D01*
X139242858Y-97452381D01*
X139147620Y-97452381D01*
X139004762Y-97404762D01*
X138909524Y-97309524D01*
X138861905Y-97214286D01*
X138814286Y-97023810D01*
X138814286Y-96880952D01*
X138861905Y-96690476D01*
X138909524Y-96595238D01*
X139004762Y-96500000D01*
X139147620Y-96452381D01*
X139242858Y-96452381D01*
X139385715Y-96500000D01*
X139433334Y-96547619D01*
X140385715Y-97452381D02*
X139814286Y-97452381D01*
X140100000Y-97452381D02*
X140100000Y-96452381D01*
X140004762Y-96595238D01*
X139909524Y-96690476D01*
X139814286Y-96738095D01*
M02*
